<?xml version="1.0" standalone="no"?><!DOCTYPE svg PUBLIC "-//W3C//DTD SVG 1.1//EN" "http://www.w3.org/Graphics/SVG/1.1/DTD/svg11.dtd"><svg t="1525412171432" class="icon" style="" viewBox="0 0 1024 1024" version="1.1" xmlns="http://www.w3.org/2000/svg" p-id="2026" xmlns:xlink="http://www.w3.org/1999/xlink" width="128" height="128"><defs><style type="text/css"></style></defs><path d="M992 512c0-3.2-1.6-6.4-1.6-8s-1.6-3.2-3.2-4.8l-288-288c-8-8-19.2-8-27.2 0s-6.4 20.8 0 27.2l254.4 254.4h-873.6c-16 0-20.8 11.2-20.8 19.2s8 19.2 19.2 19.2h873.6l-254.4 256c-8 8-8 19.2 0 27.2s20.8 6.4 27.2 0l286.4-286.4c0 0 1.6-1.6 1.6-1.6v0c0 0 0 0 0 0 4.8-4.8 6.4-9.6 6.4-14.4v0z" p-id="2027"></path></svg>